<?xml version="1.0" encoding="UTF-8"?>
<svg width="24px" height="24px" viewBox="0 0 24 24" version="1.1" xmlns="http://www.w3.org/2000/svg" xmlns:xlink="http://www.w3.org/1999/xlink">
    <!-- Generator: Sketch 53.2 (72643) - https://sketchapp.com -->
    <title>Icons/White/Account</title>
    <desc>Created with Sketch.</desc>
    <g id="Icons/White/Account" stroke="none" stroke-width="1" fill="none" fill-rule="evenodd">
        <path d="M12,21 C7.03202717,20.9937529 3.00624707,16.9679728 3,12 C3,7.02943725 7.02943725,3 12,3 C16.9705627,3 21,7.02943725 21,12 C21,16.9705627 16.9705627,21 12,21 Z M12,19.015748 C13.3745512,19.0166849 14.7187215,18.6113628 15.863622,17.8507087 C13.5087123,16.3423006 10.4912877,16.3423006 8.13637795,17.8507087 C9.28127846,18.6113628 10.6254488,19.0166849 12,19.015748 Z M12,4.98425197 C9.27677575,4.98144753 6.79835242,6.5560299 5.64384662,9.02241887 C4.48934082,11.4888078 4.86769546,14.4006354 6.61417323,16.4900787 C9.82435949,14.1527985 14.1756405,14.1527985 17.3858268,16.4900787 C19.1323045,14.4006354 19.5106592,11.4888078 18.3561534,9.02241887 C17.2016476,6.5560299 14.7232243,4.98144753 12,4.98425197 Z M12,14.3640945 C11.0738158,14.3633464 10.1859883,13.9941195 9.53240788,13.33788 C8.87882742,12.6816406 8.51320819,11.7923213 8.51622047,10.8661417 C8.52404061,8.94396783 10.0872276,7.39134009 12.0094104,7.39654822 C13.9315931,7.40175635 15.4863436,8.9628321 15.4837475,10.8850202 C15.4811514,12.8072082 13.9221898,14.3640786 12,14.3640945 Z M12,9.3807874 L12,9.37795276 C11.1768769,9.3794692 10.5082364,10.0430539 10.5004724,10.8661417 C10.4947278,11.4739008 10.8564111,12.0250178 11.4162668,12.2615885 C11.9761225,12.4981592 12.6234069,12.3733881 13.0552124,11.9456638 C13.487018,11.5179396 13.6179304,10.8718693 13.3866871,10.3097923 C13.1554437,9.74771527 12.6077862,9.38081455 12,9.3807874 Z" id="Combined-Shape" fill="#FFFFFF" fill-rule="nonzero"></path>
    </g>
</svg>