<?xml version="1.0" encoding="UTF-8"?>
<svg width="24px" height="24px" viewBox="0 0 24 24" version="1.1" xmlns="http://www.w3.org/2000/svg" xmlns:xlink="http://www.w3.org/1999/xlink">
    <!-- Generator: Sketch 53.2 (72643) - https://sketchapp.com -->
    <title>Icons/White/My Order</title>
    <desc>Created with Sketch.</desc>
    <g id="Icons/White/My-Order" stroke="none" stroke-width="1" fill="none" fill-rule="evenodd">
        <path d="M12.4954594,2 C13.642183,2.00133663 14.6564689,2.74392243 15.00414,3.83667201 L21,3.83667201 L21,21.2793803 L4,21.2793803 L4,3.83667201 L9.99813034,3.83667201 C10.3445192,2.74789578 11.3529272,2.00625751 12.4954594,2 Z M12.4954594,3.5892094 C11.9204595,3.59045805 11.4546407,4.05627683 11.4533921,4.63127671 C11.4533921,5.20679459 11.9199415,5.67334402 12.4954594,5.67334402 C13.0709773,5.67334402 13.5375267,5.20679459 13.5375267,4.63127671 C13.5375267,4.05575883 13.0709773,3.5892094 12.4954594,3.5892094 Z M19.4107906,19.6901709 L19.4107906,5.42588141 L15.00414,5.42588141 C14.657985,6.51983207 13.6428701,7.26334517 12.4954594,7.26334517 C11.3480487,7.26334517 10.3329338,6.51983207 9.98677885,5.42588141 L5.5892094,5.42588141 L5.5892094,19.6901709 L19.4107906,19.6901709 Z M8.60643697,9.26722756 L16.3844818,9.26722756 L16.3844818,10.856437 L8.60643697,10.856437 L8.60643697,9.26722756 Z M8.60643697,12.4456464 L16.3844818,12.4456464 L16.3844818,14.0348558 L8.60643697,14.0348558 L8.60643697,12.4456464 Z M8.60643697,15.6240652 L13.4330929,15.6240652 L13.4330929,17.2132746 L8.60643697,17.2132746 L8.60643697,15.6240652 Z" id="Combined-Shape" fill="#FFFFFF" fill-rule="nonzero"></path>
    </g>
</svg>