<?xml version="1.0" encoding="UTF-8"?>
<svg width="24px" height="24px" viewBox="0 0 24 24" version="1.1" xmlns="http://www.w3.org/2000/svg" xmlns:xlink="http://www.w3.org/1999/xlink">
    <!-- Generator: Sketch 53.2 (72643) - https://sketchapp.com -->
    <title>Icons/White/Subscription</title>
    <desc>Created with Sketch.</desc>
    <g id="Icons/White/Subscription" stroke="none" stroke-width="1" fill="none" fill-rule="evenodd">
        <path d="M3,21.0658221 L3,3.05342881 L6.75516387,3.05342881 L6.75516387,2 L8.49022308,2 L8.49022308,3.05342881 L15.5469568,3.05342881 L15.5469568,2 L17.282016,2 L17.282016,3.05342881 L21,3.05342881 L21,21.0658221 L3,21.0658221 Z M4.73505921,4.78848802 L4.73505921,19.3307629 L19.2649408,19.3307629 L19.2649408,4.78848802 L17.282016,4.78848802 L17.282016,5.84191683 L15.5469568,5.84191683 L15.5469568,4.78848802 L8.48774442,4.78848802 L8.48774442,5.84191683 L6.75268521,5.84191683 L6.75268521,4.78848802 L4.73505921,4.78848802 Z M6.2966125,8.03304875 L8.03910768,8.03304875 L8.03910768,9.76810796 L6.2966125,9.76810796 L6.2966125,8.03304875 Z M9.52134398,8.03304875 L11.2638392,8.03304875 L11.2638392,9.76810796 L9.52134398,9.76810796 L9.52134398,8.03304875 Z M12.7460755,8.03304875 L14.4885706,8.03304875 L14.4885706,9.76810796 L12.7460755,9.76810796 L12.7460755,8.03304875 Z M15.9732856,8.03304875 L17.7157808,8.03304875 L17.7157808,9.76810796 L15.9732856,9.76810796 L15.9732856,8.03304875 Z M6.2966125,11.5031672 L8.03910768,11.5031672 L8.03910768,13.2382264 L6.2966125,13.2382264 L6.2966125,11.5031672 Z M9.52134398,11.5031672 L11.2638392,11.5031672 L11.2638392,13.2382264 L9.52134398,13.2382264 L9.52134398,11.5031672 Z M12.7460755,11.5031672 L14.4885706,11.5031672 L14.4885706,13.2382264 L12.7460755,13.2382264 L12.7460755,11.5031672 Z M15.9732856,11.5031672 L17.7157808,11.5031672 L17.7157808,13.2382264 L15.9732856,13.2382264 L15.9732856,11.5031672 Z M6.2966125,14.9732856 L8.03910768,14.9732856 L8.03910768,16.7083448 L6.2966125,16.7083448 L6.2966125,14.9732856 Z M9.52134398,14.9732856 L11.2638392,14.9732856 L11.2638392,16.7083448 L9.52134398,16.7083448 L9.52134398,14.9732856 Z" id="Combined-Shape" fill="#FFFFFF" fill-rule="nonzero"></path>
    </g>
</svg>